<svg width="217" height="42" xmlns="http://www.w3.org/2000/svg"><defs><filter id="a"><feColorMatrix in="SourceGraphic" values="0 0 0 0 0.000000 0 0 0 0 0.000000 0 0 0 0 0.000000 0 0 0 1.000000 0"/></filter></defs><g transform="translate(-88 -88)" filter="url(#a)" fill="none" fill-rule="evenodd"><path d="M96.2 115.27c1.566 0 3.06-.342 3.96-.81v-3.456c-.756.378-1.962.828-3.6.828-2.142 0-3.312-1.566-3.312-3.312 0-1.71 1.206-3.312 3.51-3.312 1.512 0 2.61.468 3.312.828v-3.42c-.9-.468-2.034-.846-3.69-.846-4.068 0-6.912 3.042-6.912 6.75 0 3.762 2.844 6.75 6.732 6.75zm10.116-.27v-5.004h4.302V115h3.78v-12.96h-3.78v4.806h-4.302v-4.806h-3.762V115h3.762zm14.706 0v-4.032h1.062l1.908 4.032h3.906l-2.52-4.644c1.422-.684 2.286-1.926 2.286-3.762 0-3.06-2.25-4.554-5.436-4.554h-4.878V115h3.672zm1.404-7.02h-1.404v-2.772h1.404c.756 0 1.44.36 1.44 1.386 0 1.062-.684 1.386-1.44 1.386zm11.43 7.02v-12.96h-3.762V115h3.762zm6.624.27c3.384 0 5.22-1.476 5.22-3.942 0-2.412-1.584-3.294-3.672-4.158-1.314-.54-2.106-.864-2.106-1.332 0-.522.648-.828 1.71-.828 1.206 0 2.412.306 3.204.828v-3.456c-.9-.378-2.232-.612-3.528-.612-3.078 0-5.076 1.638-5.076 4.068 0 2.484 1.476 3.348 3.564 4.158 1.386.54 2.232.792 2.232 1.332 0 .468-.612.666-1.746.666-1.116 0-2.556-.36-3.762-1.026v3.6c1.008.432 2.502.702 3.96.702zm13.302-.27v-9.792h3.312v-3.168H146.69v3.168h3.312V115h3.78zm11.394.27c4.086 0 6.93-2.988 6.93-6.75 0-3.708-2.844-6.75-6.93-6.75-4.068 0-6.912 3.042-6.912 6.75 0 3.762 2.844 6.75 6.912 6.75zm0-3.438c-1.89 0-3.132-1.566-3.132-3.312 0-1.71 1.242-3.312 3.132-3.312 1.908 0 3.132 1.602 3.132 3.312 0 1.746-1.224 3.312-3.132 3.312zM178.154 115v-3.852h.666c3.222 0 5.526-1.458 5.526-4.554 0-3.078-2.304-4.554-5.526-4.554h-4.428V115h3.762zm.864-7.02h-.864v-2.772h.864c.81 0 1.53.36 1.53 1.386 0 1.044-.72 1.386-1.53 1.386zm11.016 7.02v-5.004h4.302V115h3.78v-12.96h-3.78v4.806h-4.302v-4.806h-3.762V115h3.762zm19.98 0v-3.168h-5.184v-1.926h4.212v-2.97h-4.212v-1.728h4.914v-3.168h-8.676V115h8.946zm5.958 0v-4.032h1.062l1.908 4.032h3.906l-2.52-4.644c1.422-.684 2.286-1.926 2.286-3.762 0-3.06-2.25-4.554-5.436-4.554H212.3V115h3.672zm1.404-7.02h-1.404v-2.772h1.404c.756 0 1.44.36 1.44 1.386 0 1.062-.684 1.386-1.44 1.386zm14.058 7.02l.792-1.71h3.942l.81 1.71h3.906l-6.588-13.14h-.18L227.528 115h3.906zm3.708-4.158h-1.872c.324-.756.81-1.944.918-2.412h.036c.108.468.594 1.656.918 2.412zM250.73 115v-3.168h-4.428v-9.792h-3.762V115h8.19zm10.296 0v-3.168h-4.428v-9.792h-3.762V115h8.19zm11.052 0v-3.168h-5.184v-1.926h4.212v-2.97h-4.212v-1.728h4.914v-3.168h-8.676V115h8.946zm13.572.18v-13.14h-3.69v5.814l-7.416-5.994h-.18V115h3.672v-5.814l7.452 5.994h.162z" fill="#4C4C4C" fill-rule="nonzero"/><path stroke="#000" stroke-width="2" stroke-linecap="square" d="M89.5 128.5h144m-144-39L288 89"/></g></svg>