<?xml version="1.0" encoding="UTF-8"?>
<svg width="217px" height="42px" viewBox="0 0 217 42" version="1.1" xmlns="http://www.w3.org/2000/svg" xmlns:xlink="http://www.w3.org/1999/xlink">
    <title>Group 3</title>
    <defs>
        <filter id="filter-1">
            <feColorMatrix in="SourceGraphic" type="matrix" values="0 0 0 0 0.000000 0 0 0 0 0.000000 0 0 0 0 0.000000 0 0 0 1.000000 0"></feColorMatrix>
        </filter>
    </defs>
    <g id="Web" stroke="none" stroke-width="1" fill="none" fill-rule="evenodd">
        <g id="Group-3" transform="translate(-88.000000, -88.000000)" filter="url(#filter-1)">
            <g transform="translate(89.000000, 88.000000)">
                <path d="M7.2,27.27 C8.766,27.27 10.26,26.928 11.16,26.46 L11.16,23.004 C10.404,23.382 9.198,23.832 7.56,23.832 C5.418,23.832 4.248,22.266 4.248,20.52 C4.248,18.81 5.454,17.208 7.758,17.208 C9.27,17.208 10.368,17.676 11.07,18.036 L11.07,14.616 C10.17,14.148 9.036,13.77 7.38,13.77 C3.312,13.77 0.468,16.812 0.468,20.52 C0.468,24.282 3.312,27.27 7.2,27.27 Z M17.316,27 L17.316,21.996 L21.618,21.996 L21.618,27 L25.398,27 L25.398,14.04 L21.618,14.04 L21.618,18.846 L17.316,18.846 L17.316,14.04 L13.554,14.04 L13.554,27 L17.316,27 Z M32.022,27 L32.022,22.968 L33.084,22.968 L34.992,27 L38.898,27 L36.378,22.356 C37.8,21.672 38.664,20.43 38.664,18.594 C38.664,15.534 36.414,14.04 33.228,14.04 L28.35,14.04 L28.35,27 L32.022,27 Z M33.426,19.98 L32.022,19.98 L32.022,17.208 L33.426,17.208 C34.182,17.208 34.866,17.568 34.866,18.594 C34.866,19.656 34.182,19.98 33.426,19.98 Z M44.856,27 L44.856,14.04 L41.094,14.04 L41.094,27 L44.856,27 Z M51.48,27.27 C54.864,27.27 56.7,25.794 56.7,23.328 C56.7,20.916 55.116,20.034 53.028,19.17 C51.714,18.63 50.922,18.306 50.922,17.838 C50.922,17.316 51.57,17.01 52.632,17.01 C53.838,17.01 55.044,17.316 55.836,17.838 L55.836,14.382 C54.936,14.004 53.604,13.77 52.308,13.77 C49.23,13.77 47.232,15.408 47.232,17.838 C47.232,20.322 48.708,21.186 50.796,21.996 C52.182,22.536 53.028,22.788 53.028,23.328 C53.028,23.796 52.416,23.994 51.282,23.994 C50.166,23.994 48.726,23.634 47.52,22.968 L47.52,26.568 C48.528,27 50.022,27.27 51.48,27.27 Z M64.782,27 L64.782,17.208 L68.094,17.208 L68.094,14.04 L57.69,14.04 L57.69,17.208 L61.002,17.208 L61.002,27 L64.782,27 Z M76.176,27.27 C80.262,27.27 83.106,24.282 83.106,20.52 C83.106,16.812 80.262,13.77 76.176,13.77 C72.108,13.77 69.264,16.812 69.264,20.52 C69.264,24.282 72.108,27.27 76.176,27.27 Z M76.176,23.832 C74.286,23.832 73.044,22.266 73.044,20.52 C73.044,18.81 74.286,17.208 76.176,17.208 C78.084,17.208 79.308,18.81 79.308,20.52 C79.308,22.266 78.084,23.832 76.176,23.832 Z M89.154,27 L89.154,23.148 L89.82,23.148 C93.042,23.148 95.346,21.69 95.346,18.594 C95.346,15.516 93.042,14.04 89.82,14.04 L85.392,14.04 L85.392,27 L89.154,27 Z M90.018,19.98 L89.154,19.98 L89.154,17.208 L90.018,17.208 C90.828,17.208 91.548,17.568 91.548,18.594 C91.548,19.638 90.828,19.98 90.018,19.98 Z M101.034,27 L101.034,21.996 L105.336,21.996 L105.336,27 L109.116,27 L109.116,14.04 L105.336,14.04 L105.336,18.846 L101.034,18.846 L101.034,14.04 L97.272,14.04 L97.272,27 L101.034,27 Z M121.014,27 L121.014,23.832 L115.83,23.832 L115.83,21.906 L120.042,21.906 L120.042,18.936 L115.83,18.936 L115.83,17.208 L120.744,17.208 L120.744,14.04 L112.068,14.04 L112.068,27 L121.014,27 Z M126.972,27 L126.972,22.968 L128.034,22.968 L129.942,27 L133.848,27 L131.328,22.356 C132.75,21.672 133.614,20.43 133.614,18.594 C133.614,15.534 131.364,14.04 128.178,14.04 L123.3,14.04 L123.3,27 L126.972,27 Z M128.376,19.98 L126.972,19.98 L126.972,17.208 L128.376,17.208 C129.132,17.208 129.816,17.568 129.816,18.594 C129.816,19.656 129.132,19.98 128.376,19.98 Z M142.434,27 L143.226,25.29 L147.168,25.29 L147.978,27 L151.884,27 L145.296,13.86 L145.116,13.86 L138.528,27 L142.434,27 Z M146.142,22.842 L144.27,22.842 C144.594,22.086 145.08,20.898 145.188,20.43 L145.224,20.43 C145.332,20.898 145.818,22.086 146.142,22.842 Z M161.73,27 L161.73,23.832 L157.302,23.832 L157.302,14.04 L153.54,14.04 L153.54,27 L161.73,27 Z M172.026,27 L172.026,23.832 L167.598,23.832 L167.598,14.04 L163.836,14.04 L163.836,27 L172.026,27 Z M183.078,27 L183.078,23.832 L177.894,23.832 L177.894,21.906 L182.106,21.906 L182.106,18.936 L177.894,18.936 L177.894,17.208 L182.808,17.208 L182.808,14.04 L174.132,14.04 L174.132,27 L183.078,27 Z M196.65,27.18 L196.65,14.04 L192.96,14.04 L192.96,19.854 L185.544,13.86 L185.364,13.86 L185.364,27 L189.036,27 L189.036,21.186 L196.488,27.18 L196.65,27.18 Z" id="CHRISTOPHERALLEN" fill="#4C4C4C" fill-rule="nonzero"></path>
                <line x1="0.5" y1="40.5" x2="144.5" y2="40.5" id="Line" stroke="#000000" stroke-width="2" stroke-linecap="square"></line>
                <line x1="0.5" y1="1.5" x2="199" y2="1" id="Line-Copy" stroke="#000000" stroke-width="2" stroke-linecap="square"></line>
            </g>
        </g>
    </g>
</svg>